<svg width="30" height="30" viewBox="0 0 30 30" fill="none" xmlns="http://www.w3.org/2000/svg">
<path d="M15 0L0 6.65406V10.8867L0.636541 10.604L0.909091 10.4834V26.3129H3.64968C3.36034 26.6996 3.18182 27.1757 3.18182 27.6956C3.18182 28.9628 4.20474 30 5.45455 30C6.70435 30 7.72727 28.9628 7.72727 27.6956C7.72727 27.1757 7.54875 26.6996 7.25941 26.3129H9.55877C9.26943 26.6996 9.09091 27.1757 9.09091 27.6956C9.09091 28.9628 10.1138 30 11.3636 30C12.6134 30 13.6364 28.9628 13.6364 27.6956C13.6364 27.1757 13.4578 26.6996 13.1685 26.3129H16.3636V30H17.2727V28.1565V26.3129H23.6364V28.1565V30H24.5455V26.3129H29.0909V10.4834L30 10.8867V6.65406L15 0ZM23.6364 28.1565C23.6364 28.0342 23.5885 27.917 23.5032 27.8306C23.418 27.7441 23.3024 27.6956 23.1818 27.6956C23.0613 27.6956 22.9457 27.7441 22.8604 27.8306C22.7752 27.917 22.7273 28.0342 22.7273 28.1565C22.7273 28.2787 22.7752 28.3959 22.8604 28.4823C22.9457 28.5688 23.0613 28.6173 23.1818 28.6173C23.3024 28.6173 23.418 28.5688 23.5032 28.4823C23.5885 28.3959 23.6364 28.2787 23.6364 28.1565ZM17.2727 28.1565C17.2727 28.2787 17.3206 28.3959 17.4059 28.4823C17.4911 28.5688 17.6067 28.6173 17.7273 28.6173C17.8478 28.6173 17.9634 28.5688 18.0487 28.4823C18.1339 28.3959 18.1818 28.2787 18.1818 28.1565C18.1818 28.0342 18.1339 27.917 18.0487 27.8306C17.9634 27.7441 17.8478 27.6956 17.7273 27.6956C17.6067 27.6956 17.4911 27.7441 17.4059 27.8306C17.3206 27.917 17.2727 28.0342 17.2727 28.1565ZM15 1.00639L29.0909 7.25718V9.477L15 3.22621L0.909091 9.477V7.25718L15 1.00639ZM15 4.2326L28.1818 10.0801V21.704C28.0613 21.704 27.9457 21.7526 27.8604 21.839C27.7752 21.9254 27.7273 22.0427 27.7273 22.1649C27.7273 22.2871 27.7752 22.4044 27.8604 22.4908C27.9457 22.5772 28.0613 22.6258 28.1818 22.6258V25.3911H24.5455V22.6258C24.666 22.6258 24.7816 22.5772 24.8669 22.4908C24.9521 22.4044 25 22.2871 25 22.1649C25 22.0427 24.9521 21.9254 24.8669 21.839C24.7816 21.7526 24.666 21.704 24.5455 21.704V13.8689H16.3636V21.704C16.2431 21.704 16.1275 21.7526 16.0422 21.839C15.957 21.9254 15.9091 22.0427 15.9091 22.1649C15.9091 22.2871 15.957 22.4044 16.0422 22.4908C16.1275 22.5772 16.2431 22.6258 16.3636 22.6258V25.3911H11.3636H5.45455H1.81818V22.6258C1.93873 22.6258 2.05435 22.5772 2.13959 22.4908C2.22484 22.4044 2.27273 22.2871 2.27273 22.1649C2.27273 22.0427 2.22484 21.9254 2.13959 21.839C2.05435 21.7526 1.93873 21.704 1.81818 21.704V10.0801L15 4.2326ZM3.63636 13.8689V14.3298V19.3996H11.8182V13.8689H3.63636ZM4.54545 14.7907H7.27273V18.4778H4.54545V14.7907ZM8.18182 14.7907H10.9091V18.4778H8.18182V14.7907ZM17.2727 14.7907H23.6364V25.3911H17.2727V14.7907ZM22.0455 19.8605C21.8646 19.8605 21.6912 19.9333 21.5633 20.063C21.4355 20.1926 21.3636 20.3685 21.3636 20.5518C21.3636 20.7352 21.4355 20.911 21.5633 21.0407C21.6912 21.1703 21.8646 21.2431 22.0455 21.2431C22.2263 21.2431 22.3997 21.1703 22.5276 21.0407C22.6554 20.911 22.7273 20.7352 22.7273 20.5518C22.7273 20.3685 22.6554 20.1926 22.5276 20.063C22.3997 19.9333 22.2263 19.8605 22.0455 19.8605ZM3.63636 21.704C3.51581 21.704 3.4002 21.7526 3.31495 21.839C3.22971 21.9254 3.18182 22.0427 3.18182 22.1649C3.18182 22.2871 3.22971 22.4044 3.31495 22.4908C3.4002 22.5772 3.51581 22.6258 3.63636 22.6258C3.75692 22.6258 3.87253 22.5772 3.95778 22.4908C4.04302 22.4044 4.09091 22.2871 4.09091 22.1649C4.09091 22.0427 4.04302 21.9254 3.95778 21.839C3.87253 21.7526 3.75692 21.704 3.63636 21.704ZM5.45455 21.704C5.33399 21.704 5.21838 21.7526 5.13313 21.839C5.04789 21.9254 5 22.0427 5 22.1649C5 22.2871 5.04789 22.4044 5.13313 22.4908C5.21838 22.5772 5.33399 22.6258 5.45455 22.6258C5.5751 22.6258 5.69071 22.5772 5.77596 22.4908C5.8612 22.4044 5.90909 22.2871 5.90909 22.1649C5.90909 22.0427 5.8612 21.9254 5.77596 21.839C5.69071 21.7526 5.5751 21.704 5.45455 21.704ZM7.27273 21.704C7.15217 21.704 7.03656 21.7526 6.95131 21.839C6.86607 21.9254 6.81818 22.0427 6.81818 22.1649C6.81818 22.2871 6.86607 22.4044 6.95131 22.4908C7.03656 22.5772 7.15217 22.6258 7.27273 22.6258C7.39328 22.6258 7.5089 22.5772 7.59414 22.4908C7.67938 22.4044 7.72727 22.2871 7.72727 22.1649C7.72727 22.0427 7.67938 21.9254 7.59414 21.839C7.5089 21.7526 7.39328 21.704 7.27273 21.704ZM9.09091 21.704C8.97036 21.704 8.85474 21.7526 8.7695 21.839C8.68425 21.9254 8.63636 22.0427 8.63636 22.1649C8.63636 22.2871 8.68425 22.4044 8.7695 22.4908C8.85474 22.5772 8.97036 22.6258 9.09091 22.6258C9.21146 22.6258 9.32708 22.5772 9.41232 22.4908C9.49757 22.4044 9.54545 22.2871 9.54545 22.1649C9.54545 22.0427 9.49757 21.9254 9.41232 21.839C9.32708 21.7526 9.21146 21.704 9.09091 21.704ZM10.9091 21.704C10.7885 21.704 10.6729 21.7526 10.5877 21.839C10.5024 21.9254 10.4545 22.0427 10.4545 22.1649C10.4545 22.2871 10.5024 22.4044 10.5877 22.4908C10.6729 22.5772 10.7885 22.6258 10.9091 22.6258C11.0296 22.6258 11.1453 22.5772 11.2305 22.4908C11.3157 22.4044 11.3636 22.2871 11.3636 22.1649C11.3636 22.0427 11.3157 21.9254 11.2305 21.839C11.1453 21.7526 11.0296 21.704 10.9091 21.704ZM12.7273 21.704C12.6067 21.704 12.4911 21.7526 12.4059 21.839C12.3206 21.9254 12.2727 22.0427 12.2727 22.1649C12.2727 22.2871 12.3206 22.4044 12.4059 22.4908C12.4911 22.5772 12.6067 22.6258 12.7273 22.6258C12.8478 22.6258 12.9634 22.5772 13.0487 22.4908C13.1339 22.4044 13.1818 22.2871 13.1818 22.1649C13.1818 22.0427 13.1339 21.9254 13.0487 21.839C12.9634 21.7526 12.8478 21.704 12.7273 21.704ZM14.5455 21.704C14.4249 21.704 14.3093 21.7526 14.224 21.839C14.1388 21.9254 14.0909 22.0427 14.0909 22.1649C14.0909 22.2871 14.1388 22.4044 14.224 22.4908C14.3093 22.5772 14.4249 22.6258 14.5455 22.6258C14.666 22.6258 14.7816 22.5772 14.8669 22.4908C14.9521 22.4044 15 22.2871 15 22.1649C15 22.0427 14.9521 21.9254 14.8669 21.839C14.7816 21.7526 14.666 21.704 14.5455 21.704ZM26.3636 21.704C26.2431 21.704 26.1275 21.7526 26.0422 21.839C25.957 21.9254 25.9091 22.0427 25.9091 22.1649C25.9091 22.2871 25.957 22.4044 26.0422 22.4908C26.1275 22.5772 26.2431 22.6258 26.3636 22.6258C26.4842 22.6258 26.5998 22.5772 26.685 22.4908C26.7703 22.4044 26.8182 22.2871 26.8182 22.1649C26.8182 22.0427 26.7703 21.9254 26.685 21.839C26.5998 21.7526 26.4842 21.704 26.3636 21.704ZM5.45455 26.3129C6.21305 26.3129 6.81818 26.9265 6.81818 27.6956C6.81818 28.4646 6.21305 29.0782 5.45455 29.0782C4.69605 29.0782 4.09091 28.4646 4.09091 27.6956C4.09091 26.9265 4.69605 26.3129 5.45455 26.3129ZM11.3636 26.3129C12.1221 26.3129 12.7273 26.9265 12.7273 27.6956C12.7273 28.4646 12.1221 29.0782 11.3636 29.0782C10.6051 29.0782 10 28.4646 10 27.6956C10 26.9265 10.6051 26.3129 11.3636 26.3129ZM19.5455 27.6956C19.4249 27.6956 19.3093 27.7441 19.224 27.8306C19.1388 27.917 19.0909 28.0342 19.0909 28.1565C19.0909 28.2787 19.1388 28.3959 19.224 28.4823C19.3093 28.5688 19.4249 28.6173 19.5455 28.6173C19.666 28.6173 19.7816 28.5688 19.8669 28.4823C19.9521 28.3959 20 28.2787 20 28.1565C20 28.0342 19.9521 27.917 19.8669 27.8306C19.7816 27.7441 19.666 27.6956 19.5455 27.6956ZM21.3636 27.6956C21.2431 27.6956 21.1275 27.7441 21.0422 27.8306C20.957 27.917 20.9091 28.0342 20.9091 28.1565C20.9091 28.2787 20.957 28.3959 21.0422 28.4823C21.1275 28.5688 21.2431 28.6173 21.3636 28.6173C21.4842 28.6173 21.5998 28.5688 21.685 28.4823C21.7703 28.3959 21.8182 28.2787 21.8182 28.1565C21.8182 28.0342 21.7703 27.917 21.685 27.8306C21.5998 27.7441 21.4842 27.6956 21.3636 27.6956Z" fill="#8597AB"/>
</svg>
