<svg width="30" height="21" viewBox="0 0 30 21" fill="none" xmlns="http://www.w3.org/2000/svg">
<path fill-rule="evenodd" clip-rule="evenodd" d="M0.585938 0H29.4141C29.7377 0 30 0.264305 30 0.590098V7.67128C30 7.99719 29.7377 8.26137 29.4141 8.26137H20.6445C20.3209 8.26137 20.0586 7.99719 20.0586 7.67128C20.0586 7.34537 20.3209 7.08118 20.6445 7.08118H28.8281V1.1802H27.1172V2.94382C27.1172 3.26973 26.8549 3.53392 26.5313 3.53392C26.2076 3.53392 25.9453 3.26973 25.9453 2.94382V1.1802H24.2344V1.76522C24.2344 2.09113 23.972 2.35532 23.6484 2.35532C23.3248 2.35532 23.0625 2.09113 23.0625 1.76522V1.1802H21.3516V2.94382C21.3516 3.26973 21.0892 3.53392 20.7656 3.53392C20.442 3.53392 20.1797 3.26973 20.1797 2.94382V1.1802H18.4688V1.76522C18.4688 2.09113 18.2064 2.35532 17.8828 2.35532C17.5592 2.35532 17.2969 2.09113 17.2969 1.76522V1.1802H15.5859V2.94311C15.5859 3.26903 15.3236 3.53321 15 3.53321C14.6764 3.53321 14.4141 3.26903 14.4141 2.94311V1.1802H12.7032V1.76522C12.7032 2.09113 12.4409 2.35532 12.1172 2.35532C11.7936 2.35532 11.5313 2.09113 11.5313 1.76522V1.1802H9.82037V2.94382C9.82037 3.26973 9.55805 3.53392 9.23443 3.53392C8.91082 3.53392 8.6485 3.26973 8.6485 2.94382V1.1802H6.93756V1.76522C6.93756 2.09113 6.67523 2.35532 6.35162 2.35532C6.02801 2.35532 5.76568 2.09113 5.76568 1.76522V1.1802H4.05475V2.94382C4.05475 3.03305 4.03453 3.11731 3.99932 3.19314L7.85994 7.08118H15.5273C15.851 7.08118 16.1133 7.34537 16.1133 7.67128C16.1133 7.99719 15.851 8.26137 15.5273 8.26137H8.20313V20.4099C8.20313 20.7358 7.9408 21 7.61719 21H0.585938C0.262324 21 0 20.7358 0 20.4099V0.590098C0 0.580598 0.000761719 0.572749 0.00193359 0.565609C0.0046875 0.49763 0.0177539 0.429473 0.0445898 0.364268C0.135293 0.143807 0.348984 0 0.585938 0ZM2.88281 2.06877V1.1802H2.00057L2.88281 2.06877ZM7.03125 19.8199V7.91581L1.17188 2.01483V19.8199H7.03125ZM27.7482 4.5064C27.6393 4.39664 27.4881 4.3335 27.334 4.3335C27.1799 4.3335 27.0287 4.39664 26.9197 4.5064C26.8107 4.61616 26.748 4.76841 26.748 4.9236C26.748 5.0788 26.8107 5.23104 26.9197 5.3408C27.0287 5.45056 27.1799 5.5137 27.334 5.5137C27.4881 5.5137 27.6393 5.45056 27.7482 5.3408C27.8572 5.23104 27.9199 5.0788 27.9199 4.9236C27.9199 4.76841 27.8572 4.61616 27.7482 4.5064ZM2.84063 5.21511C2.99473 5.21511 3.1459 5.27766 3.25488 5.38742C3.36387 5.49777 3.42656 5.65001 3.42656 5.80521C3.42656 5.9604 3.36387 6.11265 3.25488 6.22241C3.1459 6.33217 2.99473 6.39531 2.84063 6.39531C2.68652 6.39531 2.53535 6.33217 2.42637 6.22241C2.31738 6.11265 2.25469 5.9604 2.25469 5.80521C2.25469 5.65001 2.31738 5.49777 2.42637 5.38742C2.53535 5.27766 2.68652 5.21511 2.84063 5.21511ZM18.0275 7.081C18.1816 7.081 18.3328 7.14414 18.4418 7.2539C18.5508 7.36366 18.6135 7.5159 18.6135 7.6711C18.6135 7.82688 18.5508 7.97854 18.4418 8.0883C18.3328 8.19865 18.1816 8.2612 18.0275 8.2612C17.8729 8.2612 17.7223 8.19865 17.6133 8.0883C17.5037 7.97854 17.4416 7.82688 17.4416 7.6711C17.4416 7.5159 17.5037 7.36366 17.6133 7.2539C17.7223 7.14414 17.8729 7.081 18.0275 7.081ZM3.25488 8.10246C3.1459 7.99211 2.99473 7.92956 2.84063 7.92956C2.68652 7.92956 2.53535 7.99211 2.42637 8.10246C2.31738 8.21222 2.25469 8.36387 2.25469 8.51966C2.25469 8.67486 2.31738 8.8271 2.42637 8.93686C2.53535 9.04662 2.68652 9.10976 2.84063 9.10976C2.99473 9.10976 3.1459 9.04662 3.25488 8.93686C3.36387 8.8271 3.42656 8.67486 3.42656 8.51966C3.42656 8.36387 3.36387 8.21222 3.25488 8.10246ZM5.3625 7.92956C5.5166 7.92956 5.66777 7.99211 5.77676 8.10246C5.88574 8.21222 5.94844 8.36387 5.94844 8.51966C5.94844 8.67486 5.88574 8.8271 5.77676 8.93686C5.66777 9.04662 5.5166 9.10976 5.3625 9.10976C5.2084 9.10976 5.05723 9.04662 4.94824 8.93686C4.83926 8.8271 4.77656 8.67486 4.77656 8.51966C4.77656 8.36387 4.83926 8.21222 4.94824 8.10246C5.05723 7.99211 5.2084 7.92956 5.3625 7.92956ZM4.91209 12.2395C4.91209 11.9136 5.17441 11.6494 5.49803 11.6494C5.82164 11.6494 6.08396 11.9136 6.08396 12.2395V13.4604C6.08396 13.7863 5.82164 14.0505 5.49803 14.0505C5.17441 14.0505 4.91209 13.7863 4.91209 13.4604V12.2395ZM2.11916 12.2666C2.11916 11.9407 2.38148 11.6765 2.7051 11.6765C3.02871 11.6765 3.29104 11.9407 3.29104 12.2666V14.6543C3.29104 14.9802 3.02871 15.2444 2.7051 15.2444C2.38148 15.2444 2.11916 14.9802 2.11916 14.6543V12.2666ZM5.49803 14.8813C5.17441 14.8813 4.91209 15.1455 4.91209 15.4714V17.9878C4.91209 18.3138 5.17441 18.5779 5.49803 18.5779C5.82164 18.5779 6.08396 18.3138 6.08396 17.9878V15.4714C6.08396 15.1455 5.82164 14.8813 5.49803 14.8813ZM3.11953 16.6884C3.01055 16.578 2.85938 16.5155 2.70527 16.5155C2.55059 16.5155 2.4 16.578 2.29043 16.6884C2.18145 16.7981 2.11934 16.9504 2.11934 17.1056C2.11934 17.2608 2.18145 17.413 2.29043 17.5228C2.4 17.6325 2.55059 17.6957 2.70527 17.6957C2.85938 17.6957 3.01055 17.6325 3.11953 17.5228C3.22852 17.413 3.29121 17.2608 3.29121 17.1056C3.29121 16.9504 3.22852 16.7981 3.11953 16.6884Z" fill="#8597AB"/>
</svg>
