<svg width="30" height="30" viewBox="0 0 30 30" fill="none" xmlns="http://www.w3.org/2000/svg">
<path d="M6 0C5.8011 3.73945e-05 5.61036 0.0771568 5.46973 0.214398L4.71973 0.94621C4.57907 1.08343 4.50004 1.26955 4.5 1.46362V2.19544H2.25C1.01627 2.19544 0 3.18706 0 4.39087V6.58202C0 7.78583 1.01627 8.77745 2.25 8.77745H4.5V18.291H1.5V16.0956C1.5 15.9015 1.42098 15.7153 1.28033 15.5781C1.13968 15.4409 0.948912 15.3638 0.75 15.3638C0.551088 15.3638 0.360322 15.4409 0.21967 15.5781C0.0790178 15.7153 0 15.9015 0 16.0956V30H1.5H28.5H30V16.0956C30 15.9015 29.921 15.7153 29.7803 15.5781C29.6397 15.4409 29.4489 15.3638 29.25 15.3638C29.0511 15.3638 28.8603 15.4409 28.7197 15.5781C28.579 15.7153 28.5 15.9015 28.5 16.0956V18.291H26.1855L25.5381 11.3545C25.8745 11.2056 26.3159 11.0541 27.0938 10.4469C28.1265 9.64075 29.25 8.35056 29.25 6.58202C29.25 5.24036 28.6001 4.02665 27.873 3.11449C27.5095 2.65841 27.1222 2.27725 26.7451 1.99104C26.368 1.70484 26.0625 1.45934 25.5 1.45934C25.3011 1.45936 25.1103 1.53646 24.9697 1.6737C24.829 1.81094 24.75 1.99707 24.75 2.19115V6.21611C24.54 6.36768 24.1848 6.58202 23.625 6.58202C23.0652 6.58202 22.71 6.36768 22.5 6.21611V2.19115C22.5 1.99707 22.421 1.81094 22.2803 1.6737C22.1397 1.53646 21.9489 1.45936 21.75 1.45934C21.1875 1.45934 20.882 1.70484 20.5049 1.99104C20.1278 2.27725 19.7405 2.65841 19.377 3.11449C18.6499 4.02665 18 5.24036 18 6.58202C18 8.35056 19.1235 9.64075 20.1562 10.4469C20.9341 11.0541 21.3755 11.2056 21.7119 11.3545L21.0645 18.291H10.5V8.77745H14.25C15.0698 8.77745 15.75 8.11375 15.75 7.31383V5.4843C15.75 5.02924 15.532 4.59915 15.1611 4.32226L12.7222 2.49845L12.7207 2.49702C12.4579 2.30003 12.1361 2.19544 11.8081 2.19544H10.5V1.46362C10.5 1.26955 10.4209 1.08343 10.2803 0.94621L9.53027 0.214398C9.38964 0.0771568 9.1989 3.73945e-05 9 0H6ZM6.31055 1.46362H8.68945L9 1.76664V2.19544H6V1.76664L6.31055 1.46362ZM21 3.57187V6.58202C21 6.77609 21.0791 6.96221 21.2197 7.09943C21.2197 7.09943 22.1667 8.04564 23.625 8.04564C25.0833 8.04564 26.0303 7.09943 26.0303 7.09943C26.1709 6.96221 26.25 6.77609 26.25 6.58202V3.57187C26.3999 3.72003 26.5407 3.82543 26.6895 4.0121C27.2749 4.74652 27.75 5.72824 27.75 6.58202C27.75 7.74072 26.9985 8.64597 26.1562 9.30344C25.314 9.96092 24.4717 10.294 24.4717 10.294C24.3219 10.3524 24.1953 10.4564 24.1109 10.5905C24.0264 10.7247 23.9886 10.8818 24.0029 11.0386L24.6782 18.291H22.5718L23.2471 11.0386C23.2614 10.8818 23.2236 10.7247 23.1391 10.5905C23.0547 10.4564 22.9281 10.3524 22.7783 10.294C22.7783 10.294 21.936 9.96092 21.0938 9.30344C20.2515 8.64597 19.5 7.74072 19.5 6.58202C19.5 5.72824 19.9751 4.74652 20.5605 4.0121C20.7093 3.82543 20.8501 3.72003 21 3.57187ZM2.25 3.65906H11.8066H11.8081L14.25 5.4843V7.31383H2.25C1.82623 7.31383 1.5 6.99551 1.5 6.58202V4.39087C1.5 3.97738 1.82623 3.65906 2.25 3.65906ZM6 8.77745H9V18.291H6V8.77745ZM1.5 19.7546H21.75H25.5H28.5V23.4137H1.5V19.7546ZM1.5 24.8773H28.5V28.5364H1.5V24.8773Z" fill="#8597AB"/>
</svg>
