<svg width="46" height="38" viewBox="0 0 46 38" fill="none" xmlns="http://www.w3.org/2000/svg">
<path d="M5 0C2.25048 0 0 2.25048 0 5V11V17V19V23.9238V33C0 35.761 2.239 38 5 38H41C43.761 38 46 35.761 46 33V23.9238V19V17V11V5C46 2.25048 43.7495 0 41 0H5ZM5 2H41C42.6685 2 44 3.33152 44 5V7.0293C43.1609 6.39275 42.1279 6 41 6H5C3.87206 6 2.83906 6.39275 2 7.0293V5C2 3.33152 3.33152 2 5 2ZM5 8H41C42.6685 8 44 9.33152 44 11V13.0293C43.1609 12.3927 42.1279 12 41 12H5C3.87206 12 2.83906 12.3927 2 13.0293V11C2 9.33152 3.33152 8 5 8ZM5 14H41C42.6685 14 44 15.3315 44 17V19H33.6152C31.4472 19 29.4641 20.2251 28.4941 22.1641L28.1211 22.9121C27.1511 24.8511 25.169 26 23 26C20.831 26 18.8499 24.8511 17.8809 22.9121L17.5078 22.1641C16.5378 20.2241 14.5538 19 12.3848 19H2V17C2 15.3315 3.33152 14 5 14ZM2 21H12.3848C13.8048 21 15.0818 21.7895 15.7168 23.0605L16.0898 23.8066C17.3838 26.3926 20.032 28 23 28C25.967 28 28.6142 26.3936 29.9102 23.8066L30.2852 23.0586C30.9192 21.7896 32.1962 21 33.6152 21H44V23.9238V33C44 34.654 42.654 36 41 36H5C3.346 36 2 34.654 2 33V23.9238V21Z" fill="#FF4C00"/>
</svg>
