<svg width="38" height="38" viewBox="0 0 38 38" fill="none" xmlns="http://www.w3.org/2000/svg">
<path d="M18.9935 2.03517e-05C18.8594 0.00117728 18.7277 0.0349564 18.6095 0.0984408L0.435633 9.84529C0.303792 9.91602 0.19363 10.0212 0.116906 10.1497C0.0401818 10.2781 -0.000224155 10.425 9.35318e-07 10.5746V14.292C5.83836e-05 14.4351 0.0372851 14.5757 0.108035 14.7001C0.178784 14.8245 0.280631 14.9284 0.403598 15.0016C0.526564 15.0747 0.666435 15.1147 0.809508 15.1176C0.952581 15.1205 1.09395 15.0862 1.21977 15.018L1.65217 14.7841V37.1739C1.6522 37.393 1.73924 37.6031 1.89415 37.758C2.04907 37.9129 2.25918 38 2.47826 38H35.5217C35.7408 38 35.9509 37.9129 36.1058 37.758C36.2607 37.6031 36.3478 37.393 36.3478 37.1739V14.7841L36.7802 15.018C36.906 15.0862 37.0474 15.1205 37.1905 15.1176C37.3335 15.1147 37.4734 15.0747 37.5964 15.0016C37.7194 14.9284 37.8212 14.8245 37.8919 14.7001C37.9627 14.5757 37.9999 14.4351 38 14.292V10.5746C38.0002 10.425 37.9598 10.2781 37.8831 10.1497C37.8064 10.0212 37.6962 9.91602 37.5644 9.84529L19.3904 0.0984408C19.2685 0.0328921 19.132 -0.000951421 18.9935 2.03517e-05ZM19 1.76352L36.3478 11.0683V12.9044L19.3937 3.73354C19.2728 3.66803 19.1375 3.63372 19 3.63372C18.8625 3.63372 18.7272 3.66803 18.6063 3.73354L1.65217 12.9044V11.0683L19 1.76352ZM19 5.40024L34.6956 13.8902V36.3478H3.30435V13.8902L19 5.40024ZM18.1739 13.2174V14.9519C15.3297 15.2517 13.5675 16.9364 13.5675 19.3808C13.5675 25.6095 22.8287 22.6828 22.8287 26.9801C22.8287 28.6406 21.2717 29.7488 19 29.7488C16.7283 29.7488 15.2274 28.4838 15.1035 26.9705H13.1722C13.1838 29.4495 15.148 31.2121 18.1739 31.4575V33.0435H19.8261V31.4413C22.9586 31.1588 24.7826 29.4762 24.7826 26.8236C24.7826 20.6875 15.5101 23.1513 15.5101 19.2678C15.5101 17.8561 16.763 16.6815 19 16.6815C21.237 16.6815 22.5235 17.9464 22.5689 19.3582H24.489C24.4105 16.932 22.5803 15.209 19.8261 14.9438V13.2174H18.1739Z" fill="#FF4C00"/>
</svg>
