<svg width="58" height="38" viewBox="0 0 58 38" fill="none" xmlns="http://www.w3.org/2000/svg">
<path d="M1.02462 0C0.423737 0.113802 -0.00968535 0.648177 0.000164535 1.26667V36.7333C0.000164535 37.431 0.56657 38 1.26103 38H56.7391C57.4336 38 58 37.431 58 36.7333V1.26667C58 0.569011 57.4336 0 56.7391 0H1.26103C1.22163 0 1.18223 0 1.14282 0C1.10342 0 1.06402 0 1.02462 0ZM2.5219 2.53333H55.4783V35.4667H2.5219V2.53333ZM29.0001 7.44167L28.4091 7.75833L26.1237 8.94583L23.6414 9.30208L22.9716 9.42083L22.6958 9.975L21.5137 12.3104L19.7012 14.0917L19.2678 14.5667L19.3466 15.2L19.78 17.7333L19.3466 20.2667L19.2678 20.9L19.7012 21.375L21.5137 23.1562L22.0653 24.225L17.6523 30.3208L20.4498 30.5583L21.9865 32.9333L25.2175 26.4021L26.1237 26.5208L28.4091 27.7083L29.0001 28.025L29.5911 27.7083L31.8764 26.5208L32.7827 26.4021L36.0136 32.9333L37.5503 30.5583L40.3479 30.3208L35.9348 24.225L36.4865 23.1562L38.299 21.375L38.7324 20.9L38.6536 20.2667L38.2202 17.7333L38.6536 15.2L38.7324 14.5667L38.299 14.0917L36.4865 12.3104L35.3044 9.975L35.0286 9.42083L34.3588 9.30208L31.8764 8.94583L29.5911 7.75833L29.0001 7.44167ZM29.0001 10.2917L30.8914 11.2812L31.049 11.3604L31.2854 11.4L33.3343 11.7167L34.28 13.6167L34.3982 13.8146L34.5558 13.9333L36.0531 15.4375L35.6984 17.5354L35.659 17.7333L35.6984 17.9312L36.0531 20.0292L34.5558 21.5333L34.3982 21.6521L34.28 21.85L33.3343 23.75L31.2854 24.0667L31.049 24.1062L30.8914 24.1854L29.0001 25.175L27.1088 24.1854L26.9512 24.1062L26.7148 24.0667L24.6659 23.75L23.7202 21.85L23.602 21.6521L23.4444 21.5333L21.9471 20.0292L22.3017 17.9312L22.3411 17.7333L22.3017 17.5354L21.9471 15.4375L23.4444 13.9333L23.602 13.8146L23.7202 13.6167L24.6659 11.7167L26.7148 11.4L26.9512 11.3604L27.1088 11.2812L29.0001 10.2917Z" fill="#FF4C00"/>
</svg>
