<svg width="38" height="38" viewBox="0 0 38 38" fill="none" xmlns="http://www.w3.org/2000/svg">
<path d="M18.1739 0V7.43478C18.1724 7.54425 18.1926 7.65293 18.2334 7.75451C18.2742 7.8561 18.3348 7.94855 18.4117 8.02651C18.4886 8.10447 18.5801 8.16637 18.6811 8.20862C18.7821 8.25088 18.8905 8.27263 19 8.27263C19.1095 8.27263 19.2179 8.25088 19.3189 8.20862C19.4199 8.16637 19.5114 8.10447 19.5883 8.02651C19.6652 7.94855 19.7258 7.8561 19.7666 7.75451C19.8074 7.65293 19.8276 7.54425 19.8261 7.43478V1.73446C29.0244 2.17369 36.3478 9.69243 36.3478 19C36.3478 28.5914 28.5914 36.3478 19 36.3478C9.40861 36.3478 1.65217 28.5914 1.65217 19C1.65217 14.4242 3.41929 10.2717 6.30859 7.17179C6.38555 7.09301 6.44598 6.99964 6.48633 6.89717C6.52668 6.7947 6.54613 6.68519 6.54355 6.57509C6.54096 6.46499 6.51639 6.35652 6.47128 6.25605C6.42617 6.15559 6.36142 6.06516 6.28086 5.99007C6.20029 5.91499 6.10552 5.85677 6.00213 5.81885C5.89874 5.78092 5.7888 5.76405 5.6788 5.76922C5.56879 5.77439 5.46092 5.80151 5.36155 5.84897C5.26217 5.89644 5.17329 5.96329 5.10012 6.0456C1.93751 9.43874 0 13.9982 0 19C0 29.4842 8.51583 38 19 38C29.4842 38 38 29.4842 38 19C38 8.51662 29.4842 0 19 0H18.1739ZM9.91304 9.91304C9.91304 9.91304 16.2796 19.784 17.2478 20.7522C18.216 21.7204 19.7849 21.7196 20.7522 20.7522C21.7204 19.7849 21.7204 18.216 20.7522 17.2478C19.784 16.2796 9.91304 9.91304 9.91304 9.91304Z" fill="#FF4C00"/>
</svg>
